# xmcd
#
# Track frame offsets:
#	150
#	19475
#	37115
#	76888
#	100743
#	144318
#	162950
#	182443
#
# Disc length: 2596 seconds
#
# Revision: 0
# Processed by: cddbd v1.5.2PL0 Copyright (c) Steve Scherf et al.
# Submitted via: EZCDAudioConverter 8.0.2.1
#
DISCID=5d0a2208
DTITLE=Ngọc Lan - 6. Tình Khúc Cho Anh
DYEAR=1990
DGENRE=Pop
TTITLE0=Ngọc Lan - Ngày tuyết lạnh (Jour De Neige)
TTITLE1=Ngọc Lan - Nỗi đau niềm nhớ (Eternal Flame)
TTITLE2=Ngọc Lan, Trung Hành - Liên Khúc Quando
TTITLE3=Ngọc Lan - Khi có chàng
TTITLE4=Ngọc Lan, Trung Hành - Liên Khúc Lambada
TTITLE5=Ngọc Lan - Người yêu ơi! Giã từ
TTITLE6=Ngọc Lan - Những lời mê hoặc - Paroles 
TTITLE7=Ngọc Lan - Yêu nhau đi - Bésame Mucho
EXTD=
EXTT0=
EXTT1=
EXTT2=
EXTT3=
EXTT4=
EXTT5=
EXTT6=
EXTT7=
PLAYORDER=
